<svg xmlns="http://www.w3.org/2000/svg" xml:space="preserve" id="レイヤー_1" x="0" y="0" style="enable-background:new 0 0 18.2 20.9" version="1.1" viewBox="0 0 18.2 20.9"><style>.st0{fill:#efb94b}</style><path d="M0 5.3h10l.4.2.6 1H2.1l.1.2 1.2 2c.1.1.1.2 0 .4l-.6 1L0 5.3zM16.2 14.5 15 12.4c-.2-.3-.2-.4 0-.7l.5-.8 2.8 4.8h-10c-.2 0-.2 0-.3-.2l-.6-1h8.8z" class="st0"/><path d="M4.7 11.1 9 18.6l.1-.2 1.2-2 .3-.2h1.2L9 21l-.1-.3a612 612 0 0 0-4.8-8.6l.6-1zM9.2 2.4l-.7 1.1-.7 1.2-.1.1H6.4L9.2 0l.1.2 4.8 8.4v.3l-.6 1-4.3-7.5z" class="st0"/><path d="M18.1 5.3a3 3 0 0 0-.4.8l-4.5 7.7-.4.2h-1.1L16 6.5h-2.3c-.2 0-.3 0-.3-.2l-.6-1h5.3zM6.5 6.9l-4.3 7.5h2.4c.1 0 .2 0 .3.2l.6 1H.3l.1-.2a612 612 0 0 1 5-8.5h1.1z" class="st0"/></svg>